<?xml version="1.0" encoding="utf-8"?>
<!-- Generator: Adobe Illustrator 16.0.0, SVG Export Plug-In . SVG Version: 6.00 Build 0)  -->
<!DOCTYPE svg PUBLIC "-//W3C//DTD SVG 1.1//EN" "http://www.w3.org/Graphics/SVG/1.1/DTD/svg11.dtd">
<svg version="1.1" id="Layer_1" xmlns="http://www.w3.org/2000/svg" xmlns:xlink="http://www.w3.org/1999/xlink" x="0px" y="0px"
	 width="279.504px" height="118.149px" viewBox="0 0 279.504 118.149" enable-background="new 0 0 279.504 118.149"
	 xml:space="preserve">
<g>
	<path fill="#5F574E" d="M0.493,93.495c3.124,1.615,6.905,2.721,10.934,2.721c4.932,0,9.289-2.805,9.289-7.735
		c0-10.287-20.141-8.672-20.141-21.255c0-8.583,6.741-11.814,13.647-11.814c2.218,0,6.658,0.509,10.357,1.956l-0.494,4.675
		C21.374,60.767,17.674,60,14.797,60c-5.344,0-9.042,1.702-9.042,7.225c0,8.079,20.634,7.058,20.634,21.255
		c0,9.181-8.303,12.326-14.633,12.326c-4.028,0-8.056-0.511-11.755-2.041L0.493,93.495z"/>
	<path fill="#5F574E" d="M48.173,106.248c-1.973,5.949-4.933,11.9-10.77,11.9c-1.89,0-3.865-0.255-5.591-0.681l0.495-4.589
		c0.984,0.34,1.971,0.677,3.862,0.677c4.439,0,5.919-3.822,7.563-9.435l1.068-3.825L29.922,56.432h5.672l11.756,36.213l-0.083-0.084
		h0.164l12.084-36.129h5.426L48.173,106.248z"/>
	<path fill="#5F574E" d="M72.177,66.631c0-3.316,0-6.714-0.329-10.2h5.014v7.734h0.164c1.726-3.91,4.851-8.755,13.565-8.755
		c10.358,0,14.304,7.141,14.304,16.661v27.714h-5.18V73.434C99.716,65.27,96.92,60,89.769,60c-9.455,0-12.413,8.587-12.413,15.811
		v23.975h-5.179V66.631z"/>
	<path fill="#5F574E" d="M146,98.424c-3.617,1.53-8.303,2.382-12.167,2.382c-13.892,0-19.072-9.691-19.072-22.7
		c0-13.26,7.07-22.696,17.673-22.696c11.838,0,16.689,9.86,16.689,21.508v2.718h-28.689c0,9.183,4.767,16.579,13.81,16.579
		c3.782,0,9.29-1.618,11.756-3.232V98.424z M143.451,75.048c0-7.566-2.959-15.048-10.686-15.048
		c-7.646,0-12.331,7.905-12.331,15.048H143.451z"/>
	<path fill="#5F574E" d="M158.989,66.122c0-4.76,0-6.546-0.329-9.69h5.18v8.329h0.164c1.89-4.843,5.426-9.35,10.771-9.35
		c1.232,0,2.711,0.256,3.615,0.509v5.611c-1.067-0.338-2.467-0.51-3.78-0.51c-8.223,0-10.44,9.52-10.44,17.341v21.423h-5.18V66.122z
		"/>
	<path fill="#5F574E" d="M219.577,96.216c0,12.07-5.262,21.933-19.648,21.933c-5.509,0-10.523-1.618-12.66-2.296l0.41-5.355
		c3.207,1.699,7.811,3.058,12.331,3.058c13.319,0,14.471-10.03,14.471-22.27h-0.165c-2.795,6.29-7.398,8.5-12.743,8.5
		c-13.4,0-17.674-12.073-17.674-21.679c0-13.176,4.931-22.696,17.262-22.696c5.591,0,9.209,0.765,13.073,5.951h0.164v-4.93h5.18
		V96.216z M201.656,95.195c9.37,0,12.741-9.18,12.741-17.088c0-10.456-2.959-18.107-12.413-18.107
		c-9.866,0-12.414,9.693-12.414,18.107C189.57,86.609,192.86,95.195,201.656,95.195"/>
	<rect x="232.071" y="56.432" fill="#5F574E" width="5.181" height="43.354"/>
	<path fill="#5F574E" d="M274.408,92.814h-0.165c-2.3,5.187-8.138,7.991-13.316,7.991c-11.921,0-13.811-8.331-13.811-12.241
		c0-14.537,14.962-15.217,25.813-15.217h0.987v-2.21c0-7.395-2.549-11.137-9.538-11.137c-4.358,0-8.469,1.021-12.33,3.572v-5.186
		c3.206-1.614,8.632-2.975,12.33-2.975c10.358,0,14.714,4.846,14.714,16.151v19.127c0,3.485,0,6.12,0.412,9.096h-5.097V92.814z
		 M273.917,77.939h-1.482c-8.959,0-19.646,0.935-19.646,10.456c0,5.696,3.945,7.821,8.713,7.821
		c12.166,0,12.415-10.968,12.415-15.643V77.939z"/>
</g>
<g>
	<path fill-rule="evenodd" clip-rule="evenodd" fill="#DDA200" d="M230.321,37.564c0-2.66,2.087-4.815,4.66-4.815
		c2.57,0,4.655,2.156,4.655,4.815c0,2.658-2.085,4.813-4.655,4.813C232.408,42.377,230.321,40.222,230.321,37.564"/>
	<path fill-rule="evenodd" clip-rule="evenodd" fill="#CE9800" d="M26.389,39.427c0-2.659,2.084-4.815,4.655-4.815
		c2.574,0,4.657,2.156,4.657,4.815s-2.083,4.813-4.657,4.813C28.473,44.241,26.389,42.086,26.389,39.427"/>
</g>
<g>
	<defs>
		<path id="SVGID_1_" d="M62.289,46.154C120.71-19.712,209.907,13.44,235.561,39.97C219.422,16.847,184.76-0.001,148.733,0
			C117.093,0,84.399,12.998,62.289,46.154"/>
	</defs>
	<use xlink:href="#SVGID_1_"  overflow="visible" fill="#CE9800"/>
	<clipPath id="SVGID_2_">
		<use xlink:href="#SVGID_1_"  overflow="visible"/>
	</clipPath>
</g>
</svg>
